solid Base
   facet normal 0.000000e+000 1.000000e+000 -4.849126e-015
      outer loop
         vertex -3.000000e+001 -4.999994e+001 3.000000e+001
         vertex -3.000000e+001 -4.999994e+001 2.004790e-013
         vertex -5.000000e+001 -4.999994e+001 3.000000e+001
      endloop
   endfacet
   facet normal 0.000000e+000 1.000000e+000 -4.849126e-015
      outer loop
         vertex -5.000000e+001 -4.999994e+001 3.000000e+001
         vertex -3.000000e+001 -4.999994e+001 2.004790e-013
         vertex -5.000000e+001 -4.999994e+001 2.424560e-013
      endloop
   endfacet
   facet normal 0.000000e+000 -1.000000e+000 4.849126e-015
      outer loop
         vertex -5.000000e+001 -5.999994e+001 2.909472e-013
         vertex 5.000000e+001 -5.999994e+001 2.909472e-013
         vertex -5.000000e+001 -5.999994e+001 3.000000e+001
      endloop
   endfacet
   facet normal 0.000000e+000 -1.000000e+000 4.849126e-015
      outer loop
         vertex -5.000000e+001 -5.999994e+001 3.000000e+001
         vertex 5.000000e+001 -5.999994e+001 2.909472e-013
         vertex 5.000000e+001 -5.999994e+001 3.000000e+001
      endloop
   endfacet
   facet normal 9.716247e-032 5.200124e-015 1.000000e+000
      outer loop
         vertex -7.660444e+000 -6.427876e+000 6.000000e+001
         vertex -6.427876e+000 -7.660444e+000 6.000000e+001
         vertex 8.660254e+000 5.000000e+000 6.000000e+001
      endloop
   endfacet
   facet normal 9.716247e-032 5.200124e-015 1.000000e+000
      outer loop
         vertex -8.660254e+000 5.000000e+000 6.000000e+001
         vertex -9.396927e+000 3.420201e+000 6.000000e+001
         vertex -9.848078e+000 1.736482e+000 6.000000e+001
      endloop
   endfacet
   facet normal 9.716247e-032 5.200124e-015 1.000000e+000
      outer loop
         vertex -9.848078e+000 -1.736482e+000 6.000000e+001
         vertex -9.396927e+000 -3.420201e+000 6.000000e+001
         vertex 8.660254e+000 5.000000e+000 6.000000e+001
      endloop
   endfacet
   facet normal 9.716247e-032 5.200124e-015 1.000000e+000
      outer loop
         vertex 8.660254e+000 5.000000e+000 6.000000e+001
         vertex -9.396927e+000 -3.420201e+000 6.000000e+001
         vertex -8.660254e+000 -5.000000e+000 6.000000e+001
      endloop
   endfacet
   facet normal 9.716247e-032 5.200124e-015 1.000000e+000
      outer loop
         vertex 8.660254e+000 5.000000e+000 6.000000e+001
         vertex -8.660254e+000 -5.000000e+000 6.000000e+001
         vertex -7.660444e+000 -6.427876e+000 6.000000e+001
      endloop
   endfacet
   facet normal 9.716247e-032 5.200124e-015 1.000000e+000
      outer loop
         vertex -6.427876e+000 -7.660444e+000 6.000000e+001
         vertex -5.000000e+000 -8.660254e+000 6.000000e+001
         vertex 8.660254e+000 5.000000e+000 6.000000e+001
      endloop
   endfacet
   facet normal 9.716247e-032 5.200124e-015 1.000000e+000
      outer loop
         vertex 8.660254e+000 5.000000e+000 6.000000e+001
         vertex -5.000000e+000 -8.660254e+000 6.000000e+001
         vertex -3.420201e+000 -9.396927e+000 6.000000e+001
      endloop
   endfacet
   facet normal 9.716247e-032 5.200124e-015 1.000000e+000
      outer loop
         vertex 8.660254e+000 5.000000e+000 6.000000e+001
         vertex -3.420201e+000 -9.396927e+000 6.000000e+001
         vertex 9.396927e+000 3.420201e+000 6.000000e+001
      endloop
   endfacet
   facet normal 9.716247e-032 5.200124e-015 1.000000e+000
      outer loop
         vertex 9.396927e+000 3.420201e+000 6.000000e+001
         vertex -3.420201e+000 -9.396927e+000 6.000000e+001
         vertex 9.848078e+000 1.736482e+000 6.000000e+001
      endloop
   endfacet
   facet normal 9.716247e-032 5.200124e-015 1.000000e+000
      outer loop
         vertex 7.660444e+000 6.427876e+000 6.000000e+001
         vertex 6.427876e+000 7.660444e+000 6.000000e+001
         vertex -9.848078e+000 1.736482e+000 6.000000e+001
      endloop
   endfacet
   facet normal 9.716247e-032 5.200124e-015 1.000000e+000
      outer loop
         vertex -9.848078e+000 1.736482e+000 6.000000e+001
         vertex 6.427876e+000 7.660444e+000 6.000000e+001
         vertex 5.000000e+000 8.660254e+000 6.000000e+001
      endloop
   endfacet
   facet normal 9.716247e-032 5.200124e-015 1.000000e+000
      outer loop
         vertex 7.660444e+000 6.427876e+000 6.000000e+001
         vertex -9.848078e+000 1.736482e+000 6.000000e+001
         vertex 8.660254e+000 5.000000e+000 6.000000e+001
      endloop
   endfacet
   facet normal 9.716247e-032 5.200124e-015 1.000000e+000
      outer loop
         vertex 8.660254e+000 5.000000e+000 6.000000e+001
         vertex -9.848078e+000 1.736482e+000 6.000000e+001
         vertex -1.000000e+001 3.079152e-013 6.000000e+001
      endloop
   endfacet
   facet normal 9.716247e-032 5.200124e-015 1.000000e+000
      outer loop
         vertex 8.660254e+000 5.000000e+000 6.000000e+001
         vertex -1.000000e+001 3.079152e-013 6.000000e+001
         vertex -9.848078e+000 -1.736482e+000 6.000000e+001
      endloop
   endfacet
   facet normal 9.716247e-032 5.200124e-015 1.000000e+000
      outer loop
         vertex -1.736482e+000 -9.848078e+000 6.000000e+001
         vertex -2.449294e-015 -1.000000e+001 6.000000e+001
         vertex 9.848078e+000 -1.736482e+000 6.000000e+001
      endloop
   endfacet
   facet normal 9.716247e-032 5.200124e-015 1.000000e+000
      outer loop
         vertex 9.848078e+000 -1.736482e+000 6.000000e+001
         vertex -2.449294e-015 -1.000000e+001 6.000000e+001
         vertex 1.736482e+000 -9.848078e+000 6.000000e+001
      endloop
   endfacet
   facet normal 9.716247e-032 5.200124e-015 1.000000e+000
      outer loop
         vertex 9.848078e+000 -1.736482e+000 6.000000e+001
         vertex 1.736482e+000 -9.848078e+000 6.000000e+001
         vertex 3.420201e+000 -9.396927e+000 6.000000e+001
      endloop
   endfacet
   facet normal 9.716247e-032 5.200124e-015 1.000000e+000
      outer loop
         vertex -1.736482e+000 -9.848078e+000 6.000000e+001
         vertex 9.848078e+000 -1.736482e+000 6.000000e+001
         vertex -3.420201e+000 -9.396927e+000 6.000000e+001
      endloop
   endfacet
   facet normal 9.716247e-032 5.200124e-015 1.000000e+000
      outer loop
         vertex -3.420201e+000 -9.396927e+000 6.000000e+001
         vertex 9.848078e+000 -1.736482e+000 6.000000e+001
         vertex 1.000000e+001 3.054660e-013 6.000000e+001
      endloop
   endfacet
   facet normal 9.716247e-032 5.200124e-015 1.000000e+000
      outer loop
         vertex -3.420201e+000 -9.396927e+000 6.000000e+001
         vertex 1.000000e+001 3.054660e-013 6.000000e+001
         vertex 9.848078e+000 1.736482e+000 6.000000e+001
      endloop
   endfacet
   facet normal 9.716247e-032 5.200124e-015 1.000000e+000
      outer loop
         vertex 5.000000e+000 8.660254e+000 6.000000e+001
         vertex 3.420201e+000 9.396927e+000 6.000000e+001
         vertex -9.848078e+000 1.736482e+000 6.000000e+001
      endloop
   endfacet
   facet normal 9.716247e-032 5.200124e-015 1.000000e+000
      outer loop
         vertex -9.848078e+000 1.736482e+000 6.000000e+001
         vertex 3.420201e+000 9.396927e+000 6.000000e+001
         vertex 1.736482e+000 9.848078e+000 6.000000e+001
      endloop
   endfacet
   facet normal 9.716247e-032 5.200124e-015 1.000000e+000
      outer loop
         vertex -9.848078e+000 1.736482e+000 6.000000e+001
         vertex 1.736482e+000 9.848078e+000 6.000000e+001
         vertex 1.224647e-015 1.000000e+001 6.000000e+001
      endloop
   endfacet
   facet normal 9.716247e-032 5.200124e-015 1.000000e+000
      outer loop
         vertex -5.000000e+000 8.660254e+000 6.000000e+001
         vertex -6.427876e+000 7.660444e+000 6.000000e+001
         vertex -9.848078e+000 1.736482e+000 6.000000e+001
      endloop
   endfacet
   facet normal 9.716247e-032 5.200124e-015 1.000000e+000
      outer loop
         vertex -9.848078e+000 1.736482e+000 6.000000e+001
         vertex -6.427876e+000 7.660444e+000 6.000000e+001
         vertex -7.660444e+000 6.427876e+000 6.000000e+001
      endloop
   endfacet
   facet normal 9.716247e-032 5.200124e-015 1.000000e+000
      outer loop
         vertex -9.848078e+000 1.736482e+000 6.000000e+001
         vertex -7.660444e+000 6.427876e+000 6.000000e+001
         vertex -8.660254e+000 5.000000e+000 6.000000e+001
      endloop
   endfacet
   facet normal 9.716247e-032 5.200124e-015 1.000000e+000
      outer loop
         vertex 6.427876e+000 -7.660444e+000 6.000000e+001
         vertex 7.660444e+000 -6.427876e+000 6.000000e+001
         vertex 8.660254e+000 -5.000000e+000 6.000000e+001
      endloop
   endfacet
   facet normal 9.716247e-032 5.200124e-015 1.000000e+000
      outer loop
         vertex 1.224647e-015 1.000000e+001 6.000000e+001
         vertex -1.736482e+000 9.848078e+000 6.000000e+001
         vertex -9.848078e+000 1.736482e+000 6.000000e+001
      endloop
   endfacet
   facet normal 9.716247e-032 5.200124e-015 1.000000e+000
      outer loop
         vertex -9.848078e+000 1.736482e+000 6.000000e+001
         vertex -1.736482e+000 9.848078e+000 6.000000e+001
         vertex -3.420201e+000 9.396927e+000 6.000000e+001
      endloop
   endfacet
   facet normal 9.716247e-032 5.200124e-015 1.000000e+000
      outer loop
         vertex -9.848078e+000 1.736482e+000 6.000000e+001
         vertex -3.420201e+000 9.396927e+000 6.000000e+001
         vertex -5.000000e+000 8.660254e+000 6.000000e+001
      endloop
   endfacet
   facet normal 9.716247e-032 5.200124e-015 1.000000e+000
      outer loop
         vertex 3.420201e+000 -9.396927e+000 6.000000e+001
         vertex 5.000000e+000 -8.660254e+000 6.000000e+001
         vertex 9.848078e+000 -1.736482e+000 6.000000e+001
      endloop
   endfacet
   facet normal 9.716247e-032 5.200124e-015 1.000000e+000
      outer loop
         vertex 9.848078e+000 -1.736482e+000 6.000000e+001
         vertex 5.000000e+000 -8.660254e+000 6.000000e+001
         vertex 6.427876e+000 -7.660444e+000 6.000000e+001
      endloop
   endfacet
   facet normal 9.716247e-032 5.200124e-015 1.000000e+000
      outer loop
         vertex 9.848078e+000 -1.736482e+000 6.000000e+001
         vertex 6.427876e+000 -7.660444e+000 6.000000e+001
         vertex 9.396927e+000 -3.420201e+000 6.000000e+001
      endloop
   endfacet
   facet normal 9.716247e-032 5.200124e-015 1.000000e+000
      outer loop
         vertex 9.396927e+000 -3.420201e+000 6.000000e+001
         vertex 6.427876e+000 -7.660444e+000 6.000000e+001
         vertex 8.660254e+000 -5.000000e+000 6.000000e+001
      endloop
   endfacet
   facet normal -1.000000e+000 0.000000e+000 0.000000e+000
      outer loop
         vertex -5.000000e+001 -4.999994e+001 2.424560e-013
         vertex -5.000000e+001 -5.999994e+001 2.909472e-013
         vertex -5.000000e+001 -4.999994e+001 3.000000e+001
      endloop
   endfacet
   facet normal -1.000000e+000 0.000000e+000 0.000000e+000
      outer loop
         vertex -5.000000e+001 -4.999994e+001 3.000000e+001
         vertex -5.000000e+001 -5.999994e+001 2.909472e-013
         vertex -5.000000e+001 -5.999994e+001 3.000000e+001
      endloop
   endfacet
   facet normal 1.000000e+000 0.000000e+000 0.000000e+000
      outer loop
         vertex 5.000000e+001 -5.999994e+001 2.909472e-013
         vertex 5.000000e+001 -4.999994e+001 2.424560e-013
         vertex 5.000000e+001 -5.999994e+001 3.000000e+001
      endloop
   endfacet
   facet normal 1.000000e+000 0.000000e+000 0.000000e+000
      outer loop
         vertex 5.000000e+001 -5.999994e+001 3.000000e+001
         vertex 5.000000e+001 -4.999994e+001 2.424560e-013
         vertex 5.000000e+001 -4.999994e+001 3.000000e+001
      endloop
   endfacet
   facet normal 5.807913e-002 -9.983119e-001 5.563742e-015
      outer loop
         vertex 1.736482e+000 -9.848078e+000 3.000000e+001
         vertex 0.000000e+000 -1.000000e+001 6.000000e+001
         vertex 0.000000e+000 -1.000000e+001 3.000000e+001
      endloop
   endfacet
   facet normal -5.807913e-002 -9.983119e-001 5.563742e-015
      outer loop
         vertex 0.000000e+000 -1.000000e+001 3.000000e+001
         vertex 0.000000e+000 -1.000000e+001 6.000000e+001
         vertex -1.736482e+000 -9.848078e+000 6.000000e+001
      endloop
   endfacet
   facet normal -1.161583e-001 -9.932307e-001 5.535423e-015
      outer loop
         vertex 0.000000e+000 -1.000000e+001 3.000000e+001
         vertex -1.736482e+000 -9.848078e+000 6.000000e+001
         vertex -1.736482e+000 -9.848078e+000 3.000000e+001
      endloop
   endfacet
   facet normal -2.305519e-001 -9.730600e-001 5.423010e-015
      outer loop
         vertex -1.736482e+000 -9.848078e+000 3.000000e+001
         vertex -1.736482e+000 -9.848078e+000 6.000000e+001
         vertex -3.420201e+000 -9.396927e+000 6.000000e+001
      endloop
   endfacet
   facet normal -2.868663e-001 -9.579706e-001 5.338914e-015
      outer loop
         vertex -1.736482e+000 -9.848078e+000 3.000000e+001
         vertex -3.420201e+000 -9.396927e+000 6.000000e+001
         vertex -3.420201e+000 -9.396927e+000 3.000000e+001
      endloop
   endfacet
   facet normal -3.960194e-001 -9.182422e-001 5.117501e-015
      outer loop
         vertex -3.420201e+000 -9.396927e+000 3.000000e+001
         vertex -3.420201e+000 -9.396927e+000 6.000000e+001
         vertex -5.000000e+000 -8.660254e+000 6.000000e+001
      endloop
   endfacet
   facet normal -4.488580e-001 -8.936031e-001 4.980184e-015
      outer loop
         vertex -3.420201e+000 -9.396927e+000 3.000000e+001
         vertex -5.000000e+000 -8.660254e+000 6.000000e+001
         vertex -5.000000e+000 -8.660254e+000 3.000000e+001
      endloop
   endfacet
   facet normal -5.494540e-001 -8.355240e-001 4.656500e-015
      outer loop
         vertex -5.000000e+000 -8.660254e+000 3.000000e+001
         vertex -5.000000e+000 -8.660254e+000 6.000000e+001
         vertex -6.427876e+000 -7.660444e+000 6.000000e+001
      endloop
   endfacet
   facet normal -5.972114e-001 -8.020838e-001 4.470133e-015
      outer loop
         vertex -5.000000e+000 -8.660254e+000 3.000000e+001
         vertex -6.427876e+000 -7.660444e+000 6.000000e+001
         vertex -6.427876e+000 -7.660444e+000 3.000000e+001
      endloop
   endfacet
   facet normal -6.861938e-001 -7.274188e-001 4.054014e-015
      outer loop
         vertex -6.427876e+000 -7.660444e+000 3.000000e+001
         vertex -6.427876e+000 -7.660444e+000 6.000000e+001
         vertex -7.660444e+000 -6.427876e+000 6.000000e+001
      endloop
   endfacet
   facet normal -7.274188e-001 -6.861938e-001 3.824260e-015
      outer loop
         vertex -6.427876e+000 -7.660444e+000 3.000000e+001
         vertex -7.660444e+000 -6.427876e+000 6.000000e+001
         vertex -7.660444e+000 -6.427876e+000 3.000000e+001
      endloop
   endfacet
   facet normal -8.020838e-001 -5.972114e-001 3.328348e-015
      outer loop
         vertex -7.660444e+000 -6.427876e+000 3.000000e+001
         vertex -7.660444e+000 -6.427876e+000 6.000000e+001
         vertex -8.660254e+000 -5.000000e+000 6.000000e+001
      endloop
   endfacet
   facet normal -8.355240e-001 -5.494540e-001 3.062189e-015
      outer loop
         vertex -7.660444e+000 -6.427876e+000 3.000000e+001
         vertex -8.660254e+000 -5.000000e+000 6.000000e+001
         vertex -8.660254e+000 -5.000000e+000 3.000000e+001
      endloop
   endfacet
   facet normal -8.936031e-001 -4.488580e-001 2.501553e-015
      outer loop
         vertex -8.660254e+000 -5.000000e+000 3.000000e+001
         vertex -8.660254e+000 -5.000000e+000 6.000000e+001
         vertex -9.396927e+000 -3.420201e+000 6.000000e+001
      endloop
   endfacet
   facet normal -9.182422e-001 -3.960194e-001 2.207075e-015
      outer loop
         vertex -8.660254e+000 -5.000000e+000 3.000000e+001
         vertex -9.396927e+000 -3.420201e+000 6.000000e+001
         vertex -9.396927e+000 -3.420201e+000 3.000000e+001
      endloop
   endfacet
   facet normal -9.579706e-001 -2.868663e-001 1.598749e-015
      outer loop
         vertex -9.396927e+000 -3.420201e+000 3.000000e+001
         vertex -9.396927e+000 -3.420201e+000 6.000000e+001
         vertex -9.848078e+000 -1.736482e+000 6.000000e+001
      endloop
   endfacet
   facet normal -9.730600e-001 -2.305519e-001 1.284900e-015
      outer loop
         vertex -9.396927e+000 -3.420201e+000 3.000000e+001
         vertex -9.848078e+000 -1.736482e+000 6.000000e+001
         vertex -9.848078e+000 -1.736482e+000 3.000000e+001
      endloop
   endfacet
   facet normal -9.932307e-001 -1.161583e-001 6.473674e-016
      outer loop
         vertex -9.848078e+000 -1.736482e+000 3.000000e+001
         vertex -9.848078e+000 -1.736482e+000 6.000000e+001
         vertex -1.000000e+001 3.072542e-013 6.000000e+001
      endloop
   endfacet
   facet normal -9.983119e-001 -5.807913e-002 3.236837e-016
      outer loop
         vertex -9.848078e+000 -1.736482e+000 3.000000e+001
         vertex -1.000000e+001 3.072542e-013 6.000000e+001
         vertex -1.000000e+001 1.407208e-013 3.000000e+001
      endloop
   endfacet
   facet normal -9.983119e-001 5.807913e-002 -3.236837e-016
      outer loop
         vertex -1.000000e+001 1.407208e-013 3.000000e+001
         vertex -1.000000e+001 3.072542e-013 6.000000e+001
         vertex -9.848078e+000 1.736482e+000 6.000000e+001
      endloop
   endfacet
   facet normal -9.932307e-001 1.161583e-001 -6.473674e-016
      outer loop
         vertex -1.000000e+001 1.407208e-013 3.000000e+001
         vertex -9.848078e+000 1.736482e+000 6.000000e+001
         vertex -9.848078e+000 1.736482e+000 3.000000e+001
      endloop
   endfacet
   facet normal -9.730600e-001 2.305519e-001 -1.284900e-015
      outer loop
         vertex -9.848078e+000 1.736482e+000 3.000000e+001
         vertex -9.848078e+000 1.736482e+000 6.000000e+001
         vertex -9.396927e+000 3.420201e+000 6.000000e+001
      endloop
   endfacet
   facet normal -9.579706e-001 2.868663e-001 -1.598749e-015
      outer loop
         vertex -9.848078e+000 1.736482e+000 3.000000e+001
         vertex -9.396927e+000 3.420201e+000 6.000000e+001
         vertex -9.396927e+000 3.420201e+000 3.000000e+001
      endloop
   endfacet
   facet normal -9.182422e-001 3.960194e-001 -2.207075e-015
      outer loop
         vertex -9.396927e+000 3.420201e+000 3.000000e+001
         vertex -9.396927e+000 3.420201e+000 6.000000e+001
         vertex -8.660254e+000 5.000000e+000 6.000000e+001
      endloop
   endfacet
   facet normal -8.936031e-001 4.488580e-001 -2.501553e-015
      outer loop
         vertex -9.396927e+000 3.420201e+000 3.000000e+001
         vertex -8.660254e+000 5.000000e+000 6.000000e+001
         vertex -8.660254e+000 5.000000e+000 3.000000e+001
      endloop
   endfacet
   facet normal -8.355240e-001 5.494540e-001 -3.062189e-015
      outer loop
         vertex -8.660254e+000 5.000000e+000 3.000000e+001
         vertex -8.660254e+000 5.000000e+000 6.000000e+001
         vertex -7.660444e+000 6.427876e+000 6.000000e+001
      endloop
   endfacet
   facet normal -8.020838e-001 5.972114e-001 -3.328348e-015
      outer loop
         vertex -8.660254e+000 5.000000e+000 3.000000e+001
         vertex -7.660444e+000 6.427876e+000 6.000000e+001
         vertex -7.660444e+000 6.427876e+000 3.000000e+001
      endloop
   endfacet
   facet normal -7.274188e-001 6.861938e-001 -3.824260e-015
      outer loop
         vertex -7.660444e+000 6.427876e+000 3.000000e+001
         vertex -7.660444e+000 6.427876e+000 6.000000e+001
         vertex -6.427876e+000 7.660444e+000 6.000000e+001
      endloop
   endfacet
   facet normal -6.861938e-001 7.274188e-001 -4.054013e-015
      outer loop
         vertex -7.660444e+000 6.427876e+000 3.000000e+001
         vertex -6.427876e+000 7.660444e+000 6.000000e+001
         vertex -6.427876e+000 7.660444e+000 3.000000e+001
      endloop
   endfacet
   facet normal -5.972114e-001 8.020838e-001 -4.470133e-015
      outer loop
         vertex -6.427876e+000 7.660444e+000 3.000000e+001
         vertex -6.427876e+000 7.660444e+000 6.000000e+001
         vertex -5.000000e+000 8.660254e+000 6.000000e+001
      endloop
   endfacet
   facet normal -5.494540e-001 8.355240e-001 -4.656500e-015
      outer loop
         vertex -6.427876e+000 7.660444e+000 3.000000e+001
         vertex -5.000000e+000 8.660254e+000 6.000000e+001
         vertex -5.000000e+000 8.660254e+000 3.000000e+001
      endloop
   endfacet
   facet normal -4.488580e-001 8.936031e-001 -4.980184e-015
      outer loop
         vertex -5.000000e+000 8.660254e+000 3.000000e+001
         vertex -5.000000e+000 8.660254e+000 6.000000e+001
         vertex -3.420201e+000 9.396927e+000 6.000000e+001
      endloop
   endfacet
   facet normal -3.960194e-001 9.182422e-001 -5.117502e-015
      outer loop
         vertex -5.000000e+000 8.660254e+000 3.000000e+001
         vertex -3.420201e+000 9.396927e+000 6.000000e+001
         vertex -3.420201e+000 9.396927e+000 3.000000e+001
      endloop
   endfacet
   facet normal -2.868663e-001 9.579706e-001 -5.338914e-015
      outer loop
         vertex -3.420201e+000 9.396927e+000 3.000000e+001
         vertex -3.420201e+000 9.396927e+000 6.000000e+001
         vertex -1.736482e+000 9.848078e+000 6.000000e+001
      endloop
   endfacet
   facet normal -2.305519e-001 9.730600e-001 -5.423010e-015
      outer loop
         vertex -3.420201e+000 9.396927e+000 3.000000e+001
         vertex -1.736482e+000 9.848078e+000 6.000000e+001
         vertex -1.736482e+000 9.848078e+000 3.000000e+001
      endloop
   endfacet
   facet normal -1.161583e-001 9.932307e-001 -5.535423e-015
      outer loop
         vertex -1.736482e+000 9.848078e+000 3.000000e+001
         vertex -1.736482e+000 9.848078e+000 6.000000e+001
         vertex 1.224647e-015 1.000000e+001 6.000000e+001
      endloop
   endfacet
   facet normal -5.807913e-002 9.983119e-001 -5.563742e-015
      outer loop
         vertex -1.736482e+000 9.848078e+000 3.000000e+001
         vertex 1.224647e-015 1.000000e+001 6.000000e+001
         vertex 1.224647e-015 1.000000e+001 3.000000e+001
      endloop
   endfacet
   facet normal 5.807913e-002 9.983119e-001 -5.563742e-015
      outer loop
         vertex 1.224647e-015 1.000000e+001 3.000000e+001
         vertex 1.224647e-015 1.000000e+001 6.000000e+001
         vertex 1.736482e+000 9.848078e+000 6.000000e+001
      endloop
   endfacet
   facet normal 1.161583e-001 9.932307e-001 -5.535423e-015
      outer loop
         vertex 1.224647e-015 1.000000e+001 3.000000e+001
         vertex 1.736482e+000 9.848078e+000 6.000000e+001
         vertex 1.736482e+000 9.848078e+000 3.000000e+001
      endloop
   endfacet
   facet normal 2.305519e-001 9.730600e-001 -5.423010e-015
      outer loop
         vertex 1.736482e+000 9.848078e+000 3.000000e+001
         vertex 1.736482e+000 9.848078e+000 6.000000e+001
         vertex 3.420201e+000 9.396927e+000 6.000000e+001
      endloop
   endfacet
   facet normal 2.868663e-001 9.579706e-001 -5.338914e-015
      outer loop
         vertex 1.736482e+000 9.848078e+000 3.000000e+001
         vertex 3.420201e+000 9.396927e+000 6.000000e+001
         vertex 3.420201e+000 9.396927e+000 3.000000e+001
      endloop
   endfacet
   facet normal 3.960194e-001 9.182422e-001 -5.117501e-015
      outer loop
         vertex 3.420201e+000 9.396927e+000 3.000000e+001
         vertex 3.420201e+000 9.396927e+000 6.000000e+001
         vertex 5.000000e+000 8.660254e+000 6.000000e+001
      endloop
   endfacet
   facet normal 4.488580e-001 8.936031e-001 -4.980184e-015
      outer loop
         vertex 3.420201e+000 9.396927e+000 3.000000e+001
         vertex 5.000000e+000 8.660254e+000 6.000000e+001
         vertex 5.000000e+000 8.660254e+000 3.000000e+001
      endloop
   endfacet
   facet normal 5.494540e-001 8.355240e-001 -4.656500e-015
      outer loop
         vertex 5.000000e+000 8.660254e+000 3.000000e+001
         vertex 5.000000e+000 8.660254e+000 6.000000e+001
         vertex 6.427876e+000 7.660444e+000 6.000000e+001
      endloop
   endfacet
   facet normal 5.972114e-001 8.020838e-001 -4.470133e-015
      outer loop
         vertex 5.000000e+000 8.660254e+000 3.000000e+001
         vertex 6.427876e+000 7.660444e+000 6.000000e+001
         vertex 6.427876e+000 7.660444e+000 3.000000e+001
      endloop
   endfacet
   facet normal 6.861938e-001 7.274188e-001 -4.054014e-015
      outer loop
         vertex 6.427876e+000 7.660444e+000 3.000000e+001
         vertex 6.427876e+000 7.660444e+000 6.000000e+001
         vertex 7.660444e+000 6.427876e+000 6.000000e+001
      endloop
   endfacet
   facet normal 7.274188e-001 6.861938e-001 -3.824260e-015
      outer loop
         vertex 6.427876e+000 7.660444e+000 3.000000e+001
         vertex 7.660444e+000 6.427876e+000 6.000000e+001
         vertex 7.660444e+000 6.427876e+000 3.000000e+001
      endloop
   endfacet
   facet normal 8.020838e-001 5.972114e-001 -3.328348e-015
      outer loop
         vertex 7.660444e+000 6.427876e+000 3.000000e+001
         vertex 7.660444e+000 6.427876e+000 6.000000e+001
         vertex 8.660254e+000 5.000000e+000 6.000000e+001
      endloop
   endfacet
   facet normal 8.355240e-001 5.494540e-001 -3.062189e-015
      outer loop
         vertex 7.660444e+000 6.427876e+000 3.000000e+001
         vertex 8.660254e+000 5.000000e+000 6.000000e+001
         vertex 8.660254e+000 5.000000e+000 3.000000e+001
      endloop
   endfacet
   facet normal 8.936031e-001 4.488580e-001 -2.501553e-015
      outer loop
         vertex 8.660254e+000 5.000000e+000 3.000000e+001
         vertex 8.660254e+000 5.000000e+000 6.000000e+001
         vertex 9.396927e+000 3.420201e+000 6.000000e+001
      endloop
   endfacet
   facet normal 9.182422e-001 3.960194e-001 -2.207075e-015
      outer loop
         vertex 8.660254e+000 5.000000e+000 3.000000e+001
         vertex 9.396927e+000 3.420201e+000 6.000000e+001
         vertex 9.396927e+000 3.420201e+000 3.000000e+001
      endloop
   endfacet
   facet normal 9.579706e-001 2.868663e-001 -1.598749e-015
      outer loop
         vertex 9.396927e+000 3.420201e+000 3.000000e+001
         vertex 9.396927e+000 3.420201e+000 6.000000e+001
         vertex 9.848078e+000 1.736482e+000 6.000000e+001
      endloop
   endfacet
   facet normal 9.730600e-001 2.305519e-001 -1.284900e-015
      outer loop
         vertex 9.396927e+000 3.420201e+000 3.000000e+001
         vertex 9.848078e+000 1.736482e+000 6.000000e+001
         vertex 9.848078e+000 1.736482e+000 3.000000e+001
      endloop
   endfacet
   facet normal 9.932307e-001 1.161583e-001 -6.473674e-016
      outer loop
         vertex 9.848078e+000 1.736482e+000 3.000000e+001
         vertex 9.848078e+000 1.736482e+000 6.000000e+001
         vertex 1.000000e+001 3.048049e-013 6.000000e+001
      endloop
   endfacet
   facet normal 9.983119e-001 5.807913e-002 -3.236837e-016
      outer loop
         vertex 9.848078e+000 1.736482e+000 3.000000e+001
         vertex 1.000000e+001 3.048049e-013 6.000000e+001
         vertex 1.000000e+001 1.382715e-013 3.000000e+001
      endloop
   endfacet
   facet normal 9.983119e-001 -5.807913e-002 3.236837e-016
      outer loop
         vertex 1.000000e+001 1.382715e-013 3.000000e+001
         vertex 1.000000e+001 3.048049e-013 6.000000e+001
         vertex 9.848078e+000 -1.736482e+000 6.000000e+001
      endloop
   endfacet
   facet normal 9.932307e-001 -1.161583e-001 6.473674e-016
      outer loop
         vertex 1.000000e+001 1.382715e-013 3.000000e+001
         vertex 9.848078e+000 -1.736482e+000 6.000000e+001
         vertex 9.848078e+000 -1.736482e+000 3.000000e+001
      endloop
   endfacet
   facet normal 9.730600e-001 -2.305519e-001 1.284900e-015
      outer loop
         vertex 9.848078e+000 -1.736482e+000 3.000000e+001
         vertex 9.848078e+000 -1.736482e+000 6.000000e+001
         vertex 9.396927e+000 -3.420201e+000 6.000000e+001
      endloop
   endfacet
   facet normal 9.579706e-001 -2.868663e-001 1.598749e-015
      outer loop
         vertex 9.848078e+000 -1.736482e+000 3.000000e+001
         vertex 9.396927e+000 -3.420201e+000 6.000000e+001
         vertex 9.396927e+000 -3.420201e+000 3.000000e+001
      endloop
   endfacet
   facet normal 9.182422e-001 -3.960194e-001 2.207075e-015
      outer loop
         vertex 9.396927e+000 -3.420201e+000 3.000000e+001
         vertex 9.396927e+000 -3.420201e+000 6.000000e+001
         vertex 8.660254e+000 -5.000000e+000 6.000000e+001
      endloop
   endfacet
   facet normal 8.936031e-001 -4.488580e-001 2.501553e-015
      outer loop
         vertex 9.396927e+000 -3.420201e+000 3.000000e+001
         vertex 8.660254e+000 -5.000000e+000 6.000000e+001
         vertex 8.660254e+000 -5.000000e+000 3.000000e+001
      endloop
   endfacet
   facet normal 8.355240e-001 -5.494540e-001 3.062189e-015
      outer loop
         vertex 8.660254e+000 -5.000000e+000 3.000000e+001
         vertex 8.660254e+000 -5.000000e+000 6.000000e+001
         vertex 7.660444e+000 -6.427876e+000 6.000000e+001
      endloop
   endfacet
   facet normal 8.020838e-001 -5.972114e-001 3.328348e-015
      outer loop
         vertex 8.660254e+000 -5.000000e+000 3.000000e+001
         vertex 7.660444e+000 -6.427876e+000 6.000000e+001
         vertex 7.660444e+000 -6.427876e+000 3.000000e+001
      endloop
   endfacet
   facet normal 7.274188e-001 -6.861938e-001 3.824260e-015
      outer loop
         vertex 7.660444e+000 -6.427876e+000 3.000000e+001
         vertex 7.660444e+000 -6.427876e+000 6.000000e+001
         vertex 6.427876e+000 -7.660444e+000 6.000000e+001
      endloop
   endfacet
   facet normal 6.861938e-001 -7.274188e-001 4.054013e-015
      outer loop
         vertex 7.660444e+000 -6.427876e+000 3.000000e+001
         vertex 6.427876e+000 -7.660444e+000 6.000000e+001
         vertex 6.427876e+000 -7.660444e+000 3.000000e+001
      endloop
   endfacet
   facet normal 5.972114e-001 -8.020838e-001 4.470133e-015
      outer loop
         vertex 6.427876e+000 -7.660444e+000 3.000000e+001
         vertex 6.427876e+000 -7.660444e+000 6.000000e+001
         vertex 5.000000e+000 -8.660254e+000 6.000000e+001
      endloop
   endfacet
   facet normal 5.494540e-001 -8.355240e-001 4.656500e-015
      outer loop
         vertex 6.427876e+000 -7.660444e+000 3.000000e+001
         vertex 5.000000e+000 -8.660254e+000 6.000000e+001
         vertex 5.000000e+000 -8.660254e+000 3.000000e+001
      endloop
   endfacet
   facet normal 4.488580e-001 -8.936031e-001 4.980184e-015
      outer loop
         vertex 5.000000e+000 -8.660254e+000 3.000000e+001
         vertex 5.000000e+000 -8.660254e+000 6.000000e+001
         vertex 3.420201e+000 -9.396927e+000 6.000000e+001
      endloop
   endfacet
   facet normal 3.960194e-001 -9.182422e-001 5.117502e-015
      outer loop
         vertex 5.000000e+000 -8.660254e+000 3.000000e+001
         vertex 3.420201e+000 -9.396927e+000 6.000000e+001
         vertex 3.420201e+000 -9.396927e+000 3.000000e+001
      endloop
   endfacet
   facet normal 2.868663e-001 -9.579706e-001 5.338914e-015
      outer loop
         vertex 3.420201e+000 -9.396927e+000 3.000000e+001
         vertex 3.420201e+000 -9.396927e+000 6.000000e+001
         vertex 1.736482e+000 -9.848078e+000 6.000000e+001
      endloop
   endfacet
   facet normal 2.305519e-001 -9.730600e-001 5.423010e-015
      outer loop
         vertex 3.420201e+000 -9.396927e+000 3.000000e+001
         vertex 1.736482e+000 -9.848078e+000 6.000000e+001
         vertex 1.736482e+000 -9.848078e+000 3.000000e+001
      endloop
   endfacet
   facet normal 1.161583e-001 -9.932307e-001 5.535423e-015
      outer loop
         vertex 1.736482e+000 -9.848078e+000 3.000000e+001
         vertex 1.736482e+000 -9.848078e+000 6.000000e+001
         vertex 0.000000e+000 -1.000000e+001 6.000000e+001
      endloop
   endfacet
   facet normal 0.000000e+000 1.000000e+000 -4.849126e-015
      outer loop
         vertex 5.000000e+001 -4.999994e+001 3.000000e+001
         vertex 5.000000e+001 -4.999994e+001 2.424560e-013
         vertex 3.000000e+001 -4.999994e+001 3.000000e+001
      endloop
   endfacet
   facet normal 0.000000e+000 1.000000e+000 -4.849126e-015
      outer loop
         vertex 3.000000e+001 -4.999994e+001 3.000000e+001
         vertex 5.000000e+001 -4.999994e+001 2.424560e-013
         vertex 3.000000e+001 -4.999994e+001 2.424560e-013
      endloop
   endfacet
   facet normal 0.000000e+000 5.045793e-015 1.000000e+000
      outer loop
         vertex 1.736482e+000 -9.848078e+000 3.000000e+001
         vertex 0.000000e+000 -1.000000e+001 3.000000e+001
         vertex 3.000000e+001 -4.999994e+001 3.000000e+001
      endloop
   endfacet
   facet normal 0.000000e+000 5.045793e-015 1.000000e+000
      outer loop
         vertex -5.000000e+001 -4.999994e+001 3.000000e+001
         vertex -5.000000e+001 -5.999994e+001 3.000000e+001
         vertex -3.000000e+001 -4.999994e+001 3.000000e+001
      endloop
   endfacet
   facet normal 0.000000e+000 5.045793e-015 1.000000e+000
      outer loop
         vertex -3.000000e+001 -4.999994e+001 3.000000e+001
         vertex -5.000000e+001 -5.999994e+001 3.000000e+001
         vertex 5.000000e+001 -5.999994e+001 3.000000e+001
      endloop
   endfacet
   facet normal 0.000000e+000 5.045793e-015 1.000000e+000
      outer loop
         vertex 5.000000e+001 -5.999994e+001 3.000000e+001
         vertex 5.000000e+001 -4.999994e+001 3.000000e+001
         vertex 3.000000e+001 -4.999994e+001 3.000000e+001
      endloop
   endfacet
   facet normal 0.000000e+000 5.045793e-015 1.000000e+000
      outer loop
         vertex 5.000000e+001 -5.999994e+001 3.000000e+001
         vertex 3.000000e+001 -4.999994e+001 3.000000e+001
         vertex -3.000000e+001 -4.999994e+001 3.000000e+001
      endloop
   endfacet
   facet normal 0.000000e+000 5.045793e-015 1.000000e+000
      outer loop
         vertex -3.000000e+001 -4.999994e+001 3.000000e+001
         vertex 3.000000e+001 -4.999994e+001 3.000000e+001
         vertex 0.000000e+000 -1.000000e+001 3.000000e+001
      endloop
   endfacet
   facet normal 0.000000e+000 5.045793e-015 1.000000e+000
      outer loop
         vertex -3.000000e+001 -4.999994e+001 3.000000e+001
         vertex 0.000000e+000 -1.000000e+001 3.000000e+001
         vertex -1.736482e+000 -9.848078e+000 3.000000e+001
      endloop
   endfacet
   facet normal 0.000000e+000 5.045793e-015 1.000000e+000
      outer loop
         vertex -1.736482e+000 -9.848078e+000 3.000000e+001
         vertex -3.420201e+000 -9.396927e+000 3.000000e+001
         vertex -3.000000e+001 -4.999994e+001 3.000000e+001
      endloop
   endfacet
   facet normal 0.000000e+000 5.045793e-015 1.000000e+000
      outer loop
         vertex -3.000000e+001 -4.999994e+001 3.000000e+001
         vertex -3.420201e+000 -9.396927e+000 3.000000e+001
         vertex -5.000000e+000 -8.660254e+000 3.000000e+001
      endloop
   endfacet
   facet normal 0.000000e+000 5.045793e-015 1.000000e+000
      outer loop
         vertex -3.000000e+001 -4.999994e+001 3.000000e+001
         vertex -5.000000e+000 -8.660254e+000 3.000000e+001
         vertex -6.427876e+000 -7.660444e+000 3.000000e+001
      endloop
   endfacet
   facet normal 0.000000e+000 5.045793e-015 1.000000e+000
      outer loop
         vertex 9.848078e+000 1.736482e+000 3.000000e+001
         vertex 2.888750e+001 8.093959e+000 3.000000e+001
         vertex 9.396927e+000 3.420201e+000 3.000000e+001
      endloop
   endfacet
   facet normal 0.000000e+000 5.045793e-015 1.000000e+000
      outer loop
         vertex 9.396927e+000 3.420201e+000 3.000000e+001
         vertex 2.888750e+001 8.093959e+000 3.000000e+001
         vertex 2.751632e+001 1.195208e+001 3.000000e+001
      endloop
   endfacet
   facet normal 0.000000e+000 5.045793e-015 1.000000e+000
      outer loop
         vertex 9.396927e+000 3.420201e+000 3.000000e+001
         vertex 2.751632e+001 1.195208e+001 3.000000e+001
         vertex 8.660254e+000 5.000000e+000 3.000000e+001
      endloop
   endfacet
   facet normal 0.000000e+000 5.045793e-015 1.000000e+000
      outer loop
         vertex 8.660254e+000 5.000000e+000 3.000000e+001
         vertex 2.751632e+001 1.195208e+001 3.000000e+001
         vertex 2.563256e+001 1.558756e+001 3.000000e+001
      endloop
   endfacet
   facet normal 0.000000e+000 5.045793e-015 1.000000e+000
      outer loop
         vertex 8.660254e+000 5.000000e+000 3.000000e+001
         vertex 2.563256e+001 1.558756e+001 3.000000e+001
         vertex 7.660444e+000 6.427876e+000 3.000000e+001
      endloop
   endfacet
   facet normal 0.000000e+000 5.045793e-015 1.000000e+000
      outer loop
         vertex 7.660444e+000 6.427876e+000 3.000000e+001
         vertex 2.563256e+001 1.558756e+001 3.000000e+001
         vertex 2.327131e+001 1.893268e+001 3.000000e+001
      endloop
   endfacet
   facet normal 0.000000e+000 5.045793e-015 1.000000e+000
      outer loop
         vertex 7.660444e+000 6.427876e+000 3.000000e+001
         vertex 2.327131e+001 1.893268e+001 3.000000e+001
         vertex 6.427876e+000 7.660444e+000 3.000000e+001
      endloop
   endfacet
   facet normal 0.000000e+000 5.045793e-015 1.000000e+000
      outer loop
         vertex 1.000000e+001 1.382715e-013 3.000000e+001
         vertex 3.000000e+001 6.371461e-005 3.000000e+001
         vertex 9.848078e+000 1.736482e+000 3.000000e+001
      endloop
   endfacet
   facet normal 0.000000e+000 5.045793e-015 1.000000e+000
      outer loop
         vertex 9.848078e+000 1.736482e+000 3.000000e+001
         vertex 3.000000e+001 6.371461e-005 3.000000e+001
         vertex 2.972057e+001 4.085060e+000 3.000000e+001
      endloop
   endfacet
   facet normal 0.000000e+000 5.045793e-015 1.000000e+000
      outer loop
         vertex 9.848078e+000 1.736482e+000 3.000000e+001
         vertex 2.972057e+001 4.085060e+000 3.000000e+001
         vertex 2.888750e+001 8.093959e+000 3.000000e+001
      endloop
   endfacet
   facet normal 0.000000e+000 5.045793e-015 1.000000e+000
      outer loop
         vertex 1.000000e+001 1.382715e-013 3.000000e+001
         vertex 9.848078e+000 -1.736482e+000 3.000000e+001
         vertex 3.000000e+001 6.371461e-005 3.000000e+001
      endloop
   endfacet
   facet normal 0.000000e+000 5.045793e-015 1.000000e+000
      outer loop
         vertex 3.000000e+001 6.371461e-005 3.000000e+001
         vertex 9.848078e+000 -1.736482e+000 3.000000e+001
         vertex 9.396927e+000 -3.420201e+000 3.000000e+001
      endloop
   endfacet
   facet normal 0.000000e+000 5.045793e-015 1.000000e+000
      outer loop
         vertex 3.000000e+001 6.371461e-005 3.000000e+001
         vertex 9.396927e+000 -3.420201e+000 3.000000e+001
         vertex 3.000000e+001 -4.999994e+001 3.000000e+001
      endloop
   endfacet
   facet normal 0.000000e+000 5.045793e-015 1.000000e+000
      outer loop
         vertex 9.396927e+000 -3.420201e+000 3.000000e+001
         vertex 8.660254e+000 -5.000000e+000 3.000000e+001
         vertex 3.000000e+001 -4.999994e+001 3.000000e+001
      endloop
   endfacet
   facet normal 0.000000e+000 5.045793e-015 1.000000e+000
      outer loop
         vertex 3.000000e+001 -4.999994e+001 3.000000e+001
         vertex 8.660254e+000 -5.000000e+000 3.000000e+001
         vertex 7.660444e+000 -6.427876e+000 3.000000e+001
      endloop
   endfacet
   facet normal 0.000000e+000 5.045793e-015 1.000000e+000
      outer loop
         vertex 3.000000e+001 -4.999994e+001 3.000000e+001
         vertex 7.660444e+000 -6.427876e+000 3.000000e+001
         vertex 6.427876e+000 -7.660444e+000 3.000000e+001
      endloop
   endfacet
   facet normal 0.000000e+000 5.045793e-015 1.000000e+000
      outer loop
         vertex 6.427876e+000 -7.660444e+000 3.000000e+001
         vertex 5.000000e+000 -8.660254e+000 3.000000e+001
         vertex 3.000000e+001 -4.999994e+001 3.000000e+001
      endloop
   endfacet
   facet normal 0.000000e+000 5.045793e-015 1.000000e+000
      outer loop
         vertex 3.000000e+001 -4.999994e+001 3.000000e+001
         vertex 5.000000e+000 -8.660254e+000 3.000000e+001
         vertex 3.420201e+000 -9.396927e+000 3.000000e+001
      endloop
   endfacet
   facet normal 0.000000e+000 5.045793e-015 1.000000e+000
      outer loop
         vertex 3.000000e+001 -4.999994e+001 3.000000e+001
         vertex 3.420201e+000 -9.396927e+000 3.000000e+001
         vertex 1.736482e+000 -9.848078e+000 3.000000e+001
      endloop
   endfacet
   facet normal 0.000000e+000 5.045793e-015 1.000000e+000
      outer loop
         vertex -6.427876e+000 -7.660444e+000 3.000000e+001
         vertex -7.660444e+000 -6.427876e+000 3.000000e+001
         vertex -3.000000e+001 -4.999994e+001 3.000000e+001
      endloop
   endfacet
   facet normal 0.000000e+000 5.045793e-015 1.000000e+000
      outer loop
         vertex -3.000000e+001 -4.999994e+001 3.000000e+001
         vertex -7.660444e+000 -6.427876e+000 3.000000e+001
         vertex -8.660254e+000 -5.000000e+000 3.000000e+001
      endloop
   endfacet
   facet normal 0.000000e+000 5.045793e-015 1.000000e+000
      outer loop
         vertex -3.000000e+001 -4.999994e+001 3.000000e+001
         vertex -8.660254e+000 -5.000000e+000 3.000000e+001
         vertex -3.000000e+001 1.154087e-008 3.000000e+001
      endloop
   endfacet
   facet normal 0.000000e+000 5.045793e-015 1.000000e+000
      outer loop
         vertex -3.000000e+001 1.154087e-008 3.000000e+001
         vertex -8.660254e+000 -5.000000e+000 3.000000e+001
         vertex -9.396927e+000 -3.420201e+000 3.000000e+001
      endloop
   endfacet
   facet normal 0.000000e+000 5.045793e-015 1.000000e+000
      outer loop
         vertex -9.396927e+000 -3.420201e+000 3.000000e+001
         vertex -9.848078e+000 -1.736482e+000 3.000000e+001
         vertex -3.000000e+001 1.154087e-008 3.000000e+001
      endloop
   endfacet
   facet normal 0.000000e+000 5.045793e-015 1.000000e+000
      outer loop
         vertex -3.000000e+001 1.154087e-008 3.000000e+001
         vertex -9.848078e+000 -1.736482e+000 3.000000e+001
         vertex -1.000000e+001 1.407208e-013 3.000000e+001
      endloop
   endfacet
   facet normal 0.000000e+000 5.045793e-015 1.000000e+000
      outer loop
         vertex -3.000000e+001 1.154087e-008 3.000000e+001
         vertex -1.000000e+001 1.407208e-013 3.000000e+001
         vertex -2.972058e+001 4.084997e+000 3.000000e+001
      endloop
   endfacet
   facet normal 0.000000e+000 5.045793e-015 1.000000e+000
      outer loop
         vertex -2.972058e+001 4.084997e+000 3.000000e+001
         vertex -1.000000e+001 1.407208e-013 3.000000e+001
         vertex -9.848078e+000 1.736482e+000 3.000000e+001
      endloop
   endfacet
   facet normal 0.000000e+000 5.045793e-015 1.000000e+000
      outer loop
         vertex -2.972058e+001 4.084997e+000 3.000000e+001
         vertex -9.848078e+000 1.736482e+000 3.000000e+001
         vertex -2.888752e+001 8.093898e+000 3.000000e+001
      endloop
   endfacet
   facet normal 0.000000e+000 5.045793e-015 1.000000e+000
      outer loop
         vertex -2.888752e+001 8.093898e+000 3.000000e+001
         vertex -9.848078e+000 1.736482e+000 3.000000e+001
         vertex -9.396927e+000 3.420201e+000 3.000000e+001
      endloop
   endfacet
   facet normal 0.000000e+000 5.045793e-015 1.000000e+000
      outer loop
         vertex -5.000000e+000 8.660254e+000 3.000000e+001
         vertex -1.730042e+001 2.450908e+001 3.000000e+001
         vertex -6.427876e+000 7.660444e+000 3.000000e+001
      endloop
   endfacet
   facet normal 0.000000e+000 5.045793e-015 1.000000e+000
      outer loop
         vertex -6.427876e+000 7.660444e+000 3.000000e+001
         vertex -1.730042e+001 2.450908e+001 3.000000e+001
         vertex -2.047661e+001 2.192507e+001 3.000000e+001
      endloop
   endfacet
   facet normal 0.000000e+000 5.045793e-015 1.000000e+000
      outer loop
         vertex -6.427876e+000 7.660444e+000 3.000000e+001
         vertex -2.047661e+001 2.192507e+001 3.000000e+001
         vertex -7.660444e+000 6.427876e+000 3.000000e+001
      endloop
   endfacet
   facet normal 0.000000e+000 5.045793e-015 1.000000e+000
      outer loop
         vertex -7.660444e+000 6.427876e+000 3.000000e+001
         vertex -2.047661e+001 2.192507e+001 3.000000e+001
         vertex -2.327135e+001 1.893263e+001 3.000000e+001
      endloop
   endfacet
   facet normal 0.000000e+000 5.045793e-015 1.000000e+000
      outer loop
         vertex -7.660444e+000 6.427876e+000 3.000000e+001
         vertex -2.327135e+001 1.893263e+001 3.000000e+001
         vertex -8.660254e+000 5.000000e+000 3.000000e+001
      endloop
   endfacet
   facet normal 0.000000e+000 5.045793e-015 1.000000e+000
      outer loop
         vertex -8.660254e+000 5.000000e+000 3.000000e+001
         vertex -2.327135e+001 1.893263e+001 3.000000e+001
         vertex -2.563259e+001 1.558751e+001 3.000000e+001
      endloop
   endfacet
   facet normal 0.000000e+000 5.045793e-015 1.000000e+000
      outer loop
         vertex -8.660254e+000 5.000000e+000 3.000000e+001
         vertex -2.563259e+001 1.558751e+001 3.000000e+001
         vertex -9.396927e+000 3.420201e+000 3.000000e+001
      endloop
   endfacet
   facet normal 0.000000e+000 5.045793e-015 1.000000e+000
      outer loop
         vertex -9.396927e+000 3.420201e+000 3.000000e+001
         vertex -2.563259e+001 1.558751e+001 3.000000e+001
         vertex -2.751634e+001 1.195202e+001 3.000000e+001
      endloop
   endfacet
   facet normal 0.000000e+000 5.045793e-015 1.000000e+000
      outer loop
         vertex -9.396927e+000 3.420201e+000 3.000000e+001
         vertex -2.751634e+001 1.195202e+001 3.000000e+001
         vertex -2.888752e+001 8.093898e+000 3.000000e+001
      endloop
   endfacet
   facet normal 0.000000e+000 5.045793e-015 1.000000e+000
      outer loop
         vertex 1.224647e-015 1.000000e+001 3.000000e+001
         vertex -2.047303e+000 2.993006e+001 3.000000e+001
         vertex -1.736482e+000 9.848078e+000 3.000000e+001
      endloop
   endfacet
   facet normal 0.000000e+000 5.045793e-015 1.000000e+000
      outer loop
         vertex -1.736482e+000 9.848078e+000 3.000000e+001
         vertex -2.047303e+000 2.993006e+001 3.000000e+001
         vertex -6.103707e+000 2.937252e+001 3.000000e+001
      endloop
   endfacet
   facet normal 0.000000e+000 5.045793e-015 1.000000e+000
      outer loop
         vertex -1.736482e+000 9.848078e+000 3.000000e+001
         vertex -6.103707e+000 2.937252e+001 3.000000e+001
         vertex -3.420201e+000 9.396927e+000 3.000000e+001
      endloop
   endfacet
   facet normal 0.000000e+000 5.045793e-015 1.000000e+000
      outer loop
         vertex -3.420201e+000 9.396927e+000 3.000000e+001
         vertex -6.103707e+000 2.937252e+001 3.000000e+001
         vertex -1.004641e+001 2.826782e+001 3.000000e+001
      endloop
   endfacet
   facet normal 0.000000e+000 5.045793e-015 1.000000e+000
      outer loop
         vertex -3.420201e+000 9.396927e+000 3.000000e+001
         vertex -1.004641e+001 2.826782e+001 3.000000e+001
         vertex -5.000000e+000 8.660254e+000 3.000000e+001
      endloop
   endfacet
   facet normal 0.000000e+000 5.045793e-015 1.000000e+000
      outer loop
         vertex -5.000000e+000 8.660254e+000 3.000000e+001
         vertex -1.004641e+001 2.826782e+001 3.000000e+001
         vertex -1.380197e+001 2.663655e+001 3.000000e+001
      endloop
   endfacet
   facet normal 0.000000e+000 5.045793e-015 1.000000e+000
      outer loop
         vertex -5.000000e+000 8.660254e+000 3.000000e+001
         vertex -1.380197e+001 2.663655e+001 3.000000e+001
         vertex -1.730042e+001 2.450908e+001 3.000000e+001
      endloop
   endfacet
   facet normal 0.000000e+000 5.045793e-015 1.000000e+000
      outer loop
         vertex 2.327131e+001 1.893268e+001 3.000000e+001
         vertex 2.047656e+001 2.192511e+001 3.000000e+001
         vertex 6.427876e+000 7.660444e+000 3.000000e+001
      endloop
   endfacet
   facet normal 0.000000e+000 5.045793e-015 1.000000e+000
      outer loop
         vertex 6.427876e+000 7.660444e+000 3.000000e+001
         vertex 2.047656e+001 2.192511e+001 3.000000e+001
         vertex 1.730037e+001 2.450912e+001 3.000000e+001
      endloop
   endfacet
   facet normal 0.000000e+000 5.045793e-015 1.000000e+000
      outer loop
         vertex 6.427876e+000 7.660444e+000 3.000000e+001
         vertex 1.730037e+001 2.450912e+001 3.000000e+001
         vertex 5.000000e+000 8.660254e+000 3.000000e+001
      endloop
   endfacet
   facet normal 0.000000e+000 5.045793e-015 1.000000e+000
      outer loop
         vertex 5.000000e+000 8.660254e+000 3.000000e+001
         vertex 1.730037e+001 2.450912e+001 3.000000e+001
         vertex 1.380191e+001 2.663658e+001 3.000000e+001
      endloop
   endfacet
   facet normal 0.000000e+000 5.045793e-015 1.000000e+000
      outer loop
         vertex 5.000000e+000 8.660254e+000 3.000000e+001
         vertex 1.380191e+001 2.663658e+001 3.000000e+001
         vertex 3.420201e+000 9.396927e+000 3.000000e+001
      endloop
   endfacet
   facet normal 0.000000e+000 5.045793e-015 1.000000e+000
      outer loop
         vertex 3.420201e+000 9.396927e+000 3.000000e+001
         vertex 1.380191e+001 2.663658e+001 3.000000e+001
         vertex 1.004635e+001 2.826784e+001 3.000000e+001
      endloop
   endfacet
   facet normal 0.000000e+000 5.045793e-015 1.000000e+000
      outer loop
         vertex 3.420201e+000 9.396927e+000 3.000000e+001
         vertex 1.004635e+001 2.826784e+001 3.000000e+001
         vertex 1.736482e+000 9.848078e+000 3.000000e+001
      endloop
   endfacet
   facet normal 0.000000e+000 5.045793e-015 1.000000e+000
      outer loop
         vertex 1.736482e+000 9.848078e+000 3.000000e+001
         vertex 1.004635e+001 2.826784e+001 3.000000e+001
         vertex 6.103645e+000 2.937253e+001 3.000000e+001
      endloop
   endfacet
   facet normal 0.000000e+000 5.045793e-015 1.000000e+000
      outer loop
         vertex 1.736482e+000 9.848078e+000 3.000000e+001
         vertex 6.103645e+000 2.937253e+001 3.000000e+001
         vertex 1.224647e-015 1.000000e+001 3.000000e+001
      endloop
   endfacet
   facet normal 0.000000e+000 5.045793e-015 1.000000e+000
      outer loop
         vertex 1.224647e-015 1.000000e+001 3.000000e+001
         vertex 6.103645e+000 2.937253e+001 3.000000e+001
         vertex 2.047239e+000 2.993007e+001 3.000000e+001
      endloop
   endfacet
   facet normal 0.000000e+000 5.045793e-015 1.000000e+000
      outer loop
         vertex 1.224647e-015 1.000000e+001 3.000000e+001
         vertex 2.047239e+000 2.993007e+001 3.000000e+001
         vertex -2.047303e+000 2.993006e+001 3.000000e+001
      endloop
   endfacet
   facet normal 1.000000e+000 0.000000e+000 0.000000e+000
      outer loop
         vertex 3.000000e+001 6.371461e-005 -3.256171e-019
         vertex 3.000000e+001 6.371461e-005 3.000000e+001
         vertex 3.000000e+001 -4.999994e+001 2.424560e-013
      endloop
   endfacet
   facet normal 1.000000e+000 0.000000e+000 0.000000e+000
      outer loop
         vertex 3.000000e+001 -4.999994e+001 2.424560e-013
         vertex 3.000000e+001 6.371461e-005 3.000000e+001
         vertex 3.000000e+001 -4.999994e+001 3.000000e+001
      endloop
   endfacet
   facet normal 0.000000e+000 -5.045793e-015 -1.000000e+000
      outer loop
         vertex 5.000000e+001 -5.999994e+001 3.027473e-013
         vertex -5.000000e+001 -5.999994e+001 3.027473e-013
         vertex -3.000000e+001 -4.999994e+001 2.522893e-013
      endloop
   endfacet
   facet normal 0.000000e+000 -5.045793e-015 -1.000000e+000
      outer loop
         vertex -3.000000e+001 -4.999994e+001 2.522893e-013
         vertex -5.000000e+001 -5.999994e+001 3.027473e-013
         vertex -5.000000e+001 -4.999994e+001 2.522893e-013
      endloop
   endfacet
   facet normal 0.000000e+000 -5.045793e-015 -1.000000e+000
      outer loop
         vertex 5.000000e+001 -4.999994e+001 2.522893e-013
         vertex 5.000000e+001 -5.999994e+001 3.027473e-013
         vertex 3.000000e+001 -4.999994e+001 2.522893e-013
      endloop
   endfacet
   facet normal 0.000000e+000 -5.045793e-015 -1.000000e+000
      outer loop
         vertex 3.000000e+001 -4.999994e+001 2.522893e-013
         vertex 5.000000e+001 -5.999994e+001 3.027473e-013
         vertex -3.000000e+001 -4.999994e+001 2.522893e-013
      endloop
   endfacet
   facet normal 0.000000e+000 -5.045793e-015 -1.000000e+000
      outer loop
         vertex 3.000000e+001 -4.999994e+001 2.522893e-013
         vertex -3.000000e+001 -4.999994e+001 2.522893e-013
         vertex 3.000000e+001 6.371935e-005 -3.215147e-019
      endloop
   endfacet
   facet normal 0.000000e+000 -5.045793e-015 -1.000000e+000
      outer loop
         vertex 3.000000e+001 6.371935e-005 -3.215147e-019
         vertex -3.000000e+001 -4.999994e+001 2.522893e-013
         vertex -3.000000e+001 1.154072e-008 -5.823208e-023
      endloop
   endfacet
   facet normal 0.000000e+000 -5.045793e-015 -1.000000e+000
      outer loop
         vertex 3.000000e+001 6.371935e-005 -3.215147e-019
         vertex -3.000000e+001 1.154072e-008 -5.823208e-023
         vertex 2.972057e+001 4.085060e+000 -2.061237e-014
      endloop
   endfacet
   facet normal 0.000000e+000 -5.045793e-015 -1.000000e+000
      outer loop
         vertex 2.972057e+001 4.085060e+000 -2.061237e-014
         vertex -3.000000e+001 1.154072e-008 -5.823208e-023
         vertex -2.972058e+001 4.084997e+000 -2.061205e-014
      endloop
   endfacet
   facet normal 0.000000e+000 -5.045793e-015 -1.000000e+000
      outer loop
         vertex 2.972057e+001 4.085060e+000 -2.061237e-014
         vertex -2.972058e+001 4.084997e+000 -2.061205e-014
         vertex -2.888752e+001 8.093898e+000 -4.084014e-014
      endloop
   endfacet
   facet normal 0.000000e+000 -5.045793e-015 -1.000000e+000
      outer loop
         vertex -2.888752e+001 8.093898e+000 -4.084014e-014
         vertex -2.751634e+001 1.195202e+001 -6.030745e-014
         vertex 2.972057e+001 4.085060e+000 -2.061237e-014
      endloop
   endfacet
   facet normal 0.000000e+000 -5.045793e-015 -1.000000e+000
      outer loop
         vertex 2.972057e+001 4.085060e+000 -2.061237e-014
         vertex -2.751634e+001 1.195202e+001 -6.030745e-014
         vertex -2.563259e+001 1.558751e+001 -7.865135e-014
      endloop
   endfacet
   facet normal 0.000000e+000 -5.045793e-015 -1.000000e+000
      outer loop
         vertex 2.972057e+001 4.085060e+000 -2.061237e-014
         vertex -2.563259e+001 1.558751e+001 -7.865135e-014
         vertex -2.327135e+001 1.893263e+001 -9.553013e-014
      endloop
   endfacet
   facet normal 0.000000e+000 -5.045793e-015 -1.000000e+000
      outer loop
         vertex -2.327135e+001 1.893263e+001 -9.553013e-014
         vertex -2.047661e+001 2.192507e+001 -1.106294e-013
         vertex 2.972057e+001 4.085060e+000 -2.061237e-014
      endloop
   endfacet
   facet normal 0.000000e+000 -5.045793e-015 -1.000000e+000
      outer loop
         vertex 2.972057e+001 4.085060e+000 -2.061237e-014
         vertex -2.047661e+001 2.192507e+001 -1.106294e-013
         vertex -1.730042e+001 2.450908e+001 -1.236678e-013
      endloop
   endfacet
   facet normal 0.000000e+000 -5.045793e-015 -1.000000e+000
      outer loop
         vertex 2.972057e+001 4.085060e+000 -2.061237e-014
         vertex -1.730042e+001 2.450908e+001 -1.236678e-013
         vertex -1.380197e+001 2.663655e+001 -1.344025e-013
      endloop
   endfacet
   facet normal 0.000000e+000 -5.045793e-015 -1.000000e+000
      outer loop
         vertex -1.380197e+001 2.663655e+001 -1.344025e-013
         vertex -1.004641e+001 2.826782e+001 -1.426336e-013
         vertex 2.972057e+001 4.085060e+000 -2.061237e-014
      endloop
   endfacet
   facet normal 0.000000e+000 -5.045793e-015 -1.000000e+000
      outer loop
         vertex 2.972057e+001 4.085060e+000 -2.061237e-014
         vertex -1.004641e+001 2.826782e+001 -1.426336e-013
         vertex -6.103707e+000 2.937252e+001 -1.482077e-013
      endloop
   endfacet
   facet normal 0.000000e+000 -5.045793e-015 -1.000000e+000
      outer loop
         vertex 2.972057e+001 4.085060e+000 -2.061237e-014
         vertex -6.103707e+000 2.937252e+001 -1.482077e-013
         vertex -2.047303e+000 2.993006e+001 -1.510209e-013
      endloop
   endfacet
   facet normal 0.000000e+000 -5.045793e-015 -1.000000e+000
      outer loop
         vertex -2.047303e+000 2.993006e+001 -1.510209e-013
         vertex 2.047239e+000 2.993007e+001 -1.510209e-013
         vertex 2.972057e+001 4.085060e+000 -2.061237e-014
      endloop
   endfacet
   facet normal 0.000000e+000 -5.045793e-015 -1.000000e+000
      outer loop
         vertex 2.972057e+001 4.085060e+000 -2.061237e-014
         vertex 2.047239e+000 2.993007e+001 -1.510209e-013
         vertex 6.103645e+000 2.937253e+001 -1.482077e-013
      endloop
   endfacet
   facet normal 0.000000e+000 -5.045793e-015 -1.000000e+000
      outer loop
         vertex 2.972057e+001 4.085060e+000 -2.061237e-014
         vertex 6.103645e+000 2.937253e+001 -1.482077e-013
         vertex 1.004635e+001 2.826784e+001 -1.426337e-013
      endloop
   endfacet
   facet normal 0.000000e+000 -5.045793e-015 -1.000000e+000
      outer loop
         vertex 1.004635e+001 2.826784e+001 -1.426337e-013
         vertex 1.380191e+001 2.663658e+001 -1.344027e-013
         vertex 2.972057e+001 4.085060e+000 -2.061237e-014
      endloop
   endfacet
   facet normal 0.000000e+000 -5.045793e-015 -1.000000e+000
      outer loop
         vertex 2.972057e+001 4.085060e+000 -2.061237e-014
         vertex 1.380191e+001 2.663658e+001 -1.344027e-013
         vertex 1.730037e+001 2.450912e+001 -1.236680e-013
      endloop
   endfacet
   facet normal 0.000000e+000 -5.045793e-015 -1.000000e+000
      outer loop
         vertex 2.972057e+001 4.085060e+000 -2.061237e-014
         vertex 1.730037e+001 2.450912e+001 -1.236680e-013
         vertex 2.888750e+001 8.093959e+000 -4.084045e-014
      endloop
   endfacet
   facet normal 0.000000e+000 -5.045793e-015 -1.000000e+000
      outer loop
         vertex 2.888750e+001 8.093959e+000 -4.084045e-014
         vertex 1.730037e+001 2.450912e+001 -1.236680e-013
         vertex 2.047656e+001 2.192511e+001 -1.106296e-013
      endloop
   endfacet
   facet normal 0.000000e+000 -5.045793e-015 -1.000000e+000
      outer loop
         vertex 2.047656e+001 2.192511e+001 -1.106296e-013
         vertex 2.327131e+001 1.893268e+001 -9.553038e-014
         vertex 2.888750e+001 8.093959e+000 -4.084045e-014
      endloop
   endfacet
   facet normal 0.000000e+000 -5.045793e-015 -1.000000e+000
      outer loop
         vertex 2.888750e+001 8.093959e+000 -4.084045e-014
         vertex 2.327131e+001 1.893268e+001 -9.553038e-014
         vertex 2.563256e+001 1.558756e+001 -7.865163e-014
      endloop
   endfacet
   facet normal 0.000000e+000 -5.045793e-015 -1.000000e+000
      outer loop
         vertex 2.888750e+001 8.093959e+000 -4.084045e-014
         vertex 2.563256e+001 1.558756e+001 -7.865163e-014
         vertex 2.751632e+001 1.195208e+001 -6.030775e-014
      endloop
   endfacet
   facet normal -1.000000e+000 0.000000e+000 0.000000e+000
      outer loop
         vertex -3.000000e+001 -4.999994e+001 2.004790e-013
         vertex -3.000000e+001 -4.999994e+001 3.000000e+001
         vertex -3.000000e+001 1.154072e-008 -5.348824e-023
      endloop
   endfacet
   facet normal -1.000000e+000 0.000000e+000 0.000000e+000
      outer loop
         vertex -3.000000e+001 1.154072e-008 -5.348824e-023
         vertex -3.000000e+001 -4.999994e+001 3.000000e+001
         vertex -3.000000e+001 1.154087e-008 3.000000e+001
      endloop
   endfacet
   facet normal -9.989651e-001 4.548309e-002 -2.324439e-016
      outer loop
         vertex -3.000000e+001 2.308143e-008 -1.179590e-022
         vertex -3.000000e+001 2.308159e-008 3.000000e+001
         vertex -2.972058e+001 4.084997e+000 3.000000e+001
      endloop
   endfacet
   facet normal -9.958540e-001 9.096618e-002 -4.648878e-016
      outer loop
         vertex -3.000000e+001 2.308143e-008 -1.179590e-022
         vertex -2.972058e+001 4.084997e+000 3.000000e+001
         vertex -2.972058e+001 4.084997e+000 -2.087661e-014
      endloop
   endfacet
   facet normal -9.834674e-001 1.810851e-001 -9.254456e-016
      outer loop
         vertex -2.972058e+001 4.084997e+000 -2.087661e-014
         vertex -2.972058e+001 4.084997e+000 3.000000e+001
         vertex -2.888752e+001 8.093898e+000 3.000000e+001
      endloop
   endfacet
   facet normal -9.741920e-001 2.257209e-001 -1.153560e-015
      outer loop
         vertex -2.972058e+001 4.084997e+000 -2.087661e-014
         vertex -2.888752e+001 8.093898e+000 3.000000e+001
         vertex -2.888752e+001 8.093898e+000 -4.136432e-014
      endloop
   endfacet
   facet normal -9.496497e-001 3.133138e-001 -1.601208e-015
      outer loop
         vertex -2.888752e+001 8.093898e+000 -4.136432e-014
         vertex -2.888752e+001 8.093898e+000 3.000000e+001
         vertex -2.751634e+001 1.195202e+001 3.000000e+001
      endloop
   endfacet
   facet normal -9.343827e-001 3.562709e-001 -1.820743e-015
      outer loop
         vertex -2.888752e+001 8.093898e+000 -4.136432e-014
         vertex -2.751634e+001 1.195202e+001 3.000000e+001
         vertex -2.751634e+001 1.195202e+001 -6.108150e-014
      endloop
   endfacet
   facet normal -8.981417e-001 4.397061e-001 -2.247143e-015
      outer loop
         vertex -2.751634e+001 1.195202e+001 -6.108150e-014
         vertex -2.751634e+001 1.195202e+001 3.000000e+001
         vertex -2.563259e+001 1.558751e+001 3.000000e+001
      endloop
   endfacet
   facet normal -8.771676e-001 4.801843e-001 -2.454009e-015
      outer loop
         vertex -2.751634e+001 1.195202e+001 -6.108150e-014
         vertex -2.563259e+001 1.558751e+001 3.000000e+001
         vertex -2.563259e+001 1.558751e+001 -7.966085e-014
      endloop
   endfacet
   facet normal -8.299031e-001 5.579076e-001 -2.851218e-015
      outer loop
         vertex -2.563259e+001 1.558751e+001 -7.966085e-014
         vertex -2.563259e+001 1.558751e+001 3.000000e+001
         vertex -2.327135e+001 1.893263e+001 3.000000e+001
      endloop
   endfacet
   facet normal -8.036126e-001 5.951527e-001 -3.041562e-015
      outer loop
         vertex -2.563259e+001 1.558751e+001 -7.966085e-014
         vertex -2.327135e+001 1.893263e+001 3.000000e+001
         vertex -2.327135e+001 1.893263e+001 -9.675626e-014
      endloop
   endfacet
   facet normal -7.462050e-001 6.657162e-001 -3.402180e-015
      outer loop
         vertex -2.327135e+001 1.893263e+001 -9.675626e-014
         vertex -2.327135e+001 1.893263e+001 3.000000e+001
         vertex -2.047661e+001 2.192507e+001 3.000000e+001
      endloop
   endfacet
   facet normal -7.150878e-001 6.990346e-001 -3.572456e-015
      outer loop
         vertex -2.327135e+001 1.893263e+001 -9.675626e-014
         vertex -2.047661e+001 2.192507e+001 3.000000e+001
         vertex -2.047661e+001 2.192507e+001 -1.120493e-013
      endloop
   endfacet
   facet normal -6.486065e-001 7.611239e-001 -3.889767e-015
      outer loop
         vertex -2.047661e+001 2.192507e+001 -1.120493e-013
         vertex -2.047661e+001 2.192507e+001 3.000000e+001
         vertex -1.730042e+001 2.450908e+001 3.000000e+001
      endloop
   endfacet
   facet normal -6.132423e-001 7.898948e-001 -4.036802e-015
      outer loop
         vertex -2.047661e+001 2.192507e+001 -1.120493e-013
         vertex -1.730042e+001 2.450908e+001 3.000000e+001
         vertex -1.730042e+001 2.450908e+001 -1.252551e-013
      endloop
   endfacet
   facet normal -5.389258e-001 8.423533e-001 -4.304894e-015
      outer loop
         vertex -1.730042e+001 2.450908e+001 -1.252551e-013
         vertex -1.730042e+001 2.450908e+001 3.000000e+001
         vertex -1.380197e+001 2.663655e+001 3.000000e+001
      endloop
   endfacet
   facet normal -4.999733e-001 8.660408e-001 -4.425951e-015
      outer loop
         vertex -1.730042e+001 2.450908e+001 -1.252551e-013
         vertex -1.380197e+001 2.663655e+001 3.000000e+001
         vertex -1.380197e+001 2.663655e+001 -1.361276e-013
      endloop
   endfacet
   facet normal -4.192058e-001 9.078912e-001 -4.639830e-015
      outer loop
         vertex -1.380197e+001 2.663655e+001 -1.361276e-013
         vertex -1.380197e+001 2.663655e+001 3.000000e+001
         vertex -1.004641e+001 2.826782e+001 3.000000e+001
      endloop
   endfacet
   facet normal -3.773908e-001 9.260541e-001 -4.732652e-015
      outer loop
         vertex -1.380197e+001 2.663655e+001 -1.361276e-013
         vertex -1.004641e+001 2.826782e+001 3.000000e+001
         vertex -1.004641e+001 2.826782e+001 -1.444643e-013
      endloop
   endfacet
   facet normal -2.916769e-001 9.565169e-001 -4.888334e-015
      outer loop
         vertex -1.004641e+001 2.826782e+001 -1.444643e-013
         vertex -1.004641e+001 2.826782e+001 3.000000e+001
         vertex -6.103707e+000 2.937252e+001 3.000000e+001
      endloop
   endfacet
   facet normal -2.477781e-001 9.688168e-001 -4.951193e-015
      outer loop
         vertex -1.004641e+001 2.826782e+001 -1.444643e-013
         vertex -6.103707e+000 2.937252e+001 3.000000e+001
         vertex -6.103707e+000 2.937252e+001 -1.501099e-013
      endloop
   endfacet
   facet normal -1.587146e-001 9.873245e-001 -5.045778e-015
      outer loop
         vertex -6.103707e+000 2.937252e+001 -1.501099e-013
         vertex -6.103707e+000 2.937252e+001 3.000000e+001
         vertex -2.047303e+000 2.993006e+001 3.000000e+001
      endloop
   endfacet
   facet normal -1.135499e-001 9.935323e-001 -5.077503e-015
      outer loop
         vertex -6.103707e+000 2.937252e+001 -1.501099e-013
         vertex -2.047303e+000 2.993006e+001 3.000000e+001
         vertex -2.047303e+000 2.993006e+001 -1.529593e-013
      endloop
   endfacet
   facet normal -2.279575e-002 9.997402e-001 -5.109229e-015
      outer loop
         vertex -2.047303e+000 2.993006e+001 -1.529593e-013
         vertex -2.047303e+000 2.993006e+001 3.000000e+001
         vertex 2.047239e+000 2.993007e+001 3.000000e+001
      endloop
   endfacet
   facet normal 2.279362e-002 9.997402e-001 -5.109229e-015
      outer loop
         vertex -2.047303e+000 2.993006e+001 -1.529593e-013
         vertex 2.047239e+000 2.993007e+001 3.000000e+001
         vertex 2.047239e+000 2.993007e+001 -1.529593e-013
      endloop
   endfacet
   facet normal 1.135477e-001 9.935325e-001 -5.077504e-015
      outer loop
         vertex 2.047239e+000 2.993007e+001 -1.529593e-013
         vertex 2.047239e+000 2.993007e+001 3.000000e+001
         vertex 6.103645e+000 2.937253e+001 3.000000e+001
      endloop
   endfacet
   facet normal 1.587125e-001 9.873248e-001 -5.045780e-015
      outer loop
         vertex 2.047239e+000 2.993007e+001 -1.529593e-013
         vertex 6.103645e+000 2.937253e+001 3.000000e+001
         vertex 6.103645e+000 2.937253e+001 -1.501100e-013
      endloop
   endfacet
   facet normal 2.477761e-001 9.688174e-001 -4.951196e-015
      outer loop
         vertex 6.103645e+000 2.937253e+001 -1.501100e-013
         vertex 6.103645e+000 2.937253e+001 3.000000e+001
         vertex 1.004635e+001 2.826784e+001 3.000000e+001
      endloop
   endfacet
   facet normal 2.916749e-001 9.565175e-001 -4.888337e-015
      outer loop
         vertex 6.103645e+000 2.937253e+001 -1.501100e-013
         vertex 1.004635e+001 2.826784e+001 3.000000e+001
         vertex 1.004635e+001 2.826784e+001 -1.444644e-013
      endloop
   endfacet
   facet normal 3.773888e-001 9.260550e-001 -4.732656e-015
      outer loop
         vertex 1.004635e+001 2.826784e+001 -1.444644e-013
         vertex 1.004635e+001 2.826784e+001 3.000000e+001
         vertex 1.380191e+001 2.663658e+001 3.000000e+001
      endloop
   endfacet
   facet normal 4.192039e-001 9.078921e-001 -4.639834e-015
      outer loop
         vertex 1.004635e+001 2.826784e+001 -1.444644e-013
         vertex 1.380191e+001 2.663658e+001 3.000000e+001
         vertex 1.380191e+001 2.663658e+001 -1.361277e-013
      endloop
   endfacet
   facet normal 4.999715e-001 8.660418e-001 -4.425956e-015
      outer loop
         vertex 1.380191e+001 2.663658e+001 -1.361277e-013
         vertex 1.380191e+001 2.663658e+001 3.000000e+001
         vertex 1.730037e+001 2.450912e+001 3.000000e+001
      endloop
   endfacet
   facet normal 5.389240e-001 8.423544e-001 -4.304900e-015
      outer loop
         vertex 1.380191e+001 2.663658e+001 -1.361277e-013
         vertex 1.730037e+001 2.450912e+001 3.000000e+001
         vertex 1.730037e+001 2.450912e+001 -1.252553e-013
      endloop
   endfacet
   facet normal 6.132407e-001 7.898961e-001 -4.036809e-015
      outer loop
         vertex 1.730037e+001 2.450912e+001 -1.252553e-013
         vertex 1.730037e+001 2.450912e+001 3.000000e+001
         vertex 2.047656e+001 2.192511e+001 3.000000e+001
      endloop
   endfacet
   facet normal 6.486049e-001 7.611253e-001 -3.889774e-015
      outer loop
         vertex 1.730037e+001 2.450912e+001 -1.252553e-013
         vertex 2.047656e+001 2.192511e+001 3.000000e+001
         vertex 2.047656e+001 2.192511e+001 -1.120495e-013
      endloop
   endfacet
   facet normal 7.150863e-001 6.990361e-001 -3.572464e-015
      outer loop
         vertex 2.047656e+001 2.192511e+001 -1.120495e-013
         vertex 2.047656e+001 2.192511e+001 3.000000e+001
         vertex 2.327131e+001 1.893268e+001 3.000000e+001
      endloop
   endfacet
   facet normal 7.462036e-001 6.657178e-001 -3.402189e-015
      outer loop
         vertex 2.047656e+001 2.192511e+001 -1.120495e-013
         vertex 2.327131e+001 1.893268e+001 3.000000e+001
         vertex 2.327131e+001 1.893268e+001 -9.675651e-014
      endloop
   endfacet
   facet normal 8.036114e-001 5.951544e-001 -3.041571e-015
      outer loop
         vertex 2.327131e+001 1.893268e+001 -9.675651e-014
         vertex 2.327131e+001 1.893268e+001 3.000000e+001
         vertex 2.563256e+001 1.558756e+001 3.000000e+001
      endloop
   endfacet
   facet normal 8.299019e-001 5.579093e-001 -2.851227e-015
      outer loop
         vertex 2.327131e+001 1.893268e+001 -9.675651e-014
         vertex 2.563256e+001 1.558756e+001 3.000000e+001
         vertex 2.563256e+001 1.558756e+001 -7.966112e-014
      endloop
   endfacet
   facet normal 8.771666e-001 4.801861e-001 -2.454018e-015
      outer loop
         vertex 2.563256e+001 1.558756e+001 -7.966112e-014
         vertex 2.563256e+001 1.558756e+001 3.000000e+001
         vertex 2.751632e+001 1.195208e+001 3.000000e+001
      endloop
   endfacet
   facet normal 8.981408e-001 4.397081e-001 -2.247153e-015
      outer loop
         vertex 2.563256e+001 1.558756e+001 -7.966112e-014
         vertex 2.751632e+001 1.195208e+001 3.000000e+001
         vertex 2.751632e+001 1.195208e+001 -6.108180e-014
      endloop
   endfacet
   facet normal 9.343820e-001 3.562729e-001 -1.820753e-015
      outer loop
         vertex 2.751632e+001 1.195208e+001 -6.108180e-014
         vertex 2.751632e+001 1.195208e+001 3.000000e+001
         vertex 2.888750e+001 8.093959e+000 3.000000e+001
      endloop
   endfacet
   facet normal 9.496490e-001 3.133158e-001 -1.601218e-015
      outer loop
         vertex 2.751632e+001 1.195208e+001 -6.108180e-014
         vertex 2.888750e+001 8.093959e+000 3.000000e+001
         vertex 2.888750e+001 8.093959e+000 -4.136464e-014
      endloop
   endfacet
   facet normal 9.741915e-001 2.257230e-001 -1.153570e-015
      outer loop
         vertex 2.888750e+001 8.093959e+000 -4.136464e-014
         vertex 2.888750e+001 8.093959e+000 3.000000e+001
         vertex 2.972057e+001 4.085060e+000 3.000000e+001
      endloop
   endfacet
   facet normal 9.834670e-001 1.810872e-001 -9.254564e-016
      outer loop
         vertex 2.888750e+001 8.093959e+000 -4.136464e-014
         vertex 2.972057e+001 4.085060e+000 3.000000e+001
         vertex 2.972057e+001 4.085060e+000 -2.087693e-014
      endloop
   endfacet
   facet normal 9.958538e-001 9.096829e-002 -4.648986e-016
      outer loop
         vertex 2.972057e+001 4.085060e+000 -2.087693e-014
         vertex 2.972057e+001 4.085060e+000 3.000000e+001
         vertex 3.000000e+001 6.371461e-005 3.000000e+001
      endloop
   endfacet
   facet normal 9.989650e-001 4.548522e-002 -2.324547e-016
      outer loop
         vertex 2.972057e+001 4.085060e+000 -2.087693e-014
         vertex 3.000000e+001 6.371461e-005 3.000000e+001
         vertex 3.000000e+001 6.371461e-005 -3.256171e-019
      endloop
   endfacet
endsolid